# xmcd
#
# Track frame offsets: 
#        150
#        16840
#        45124
#
# Disc length: 1107 seconds
#
# Revision: 0
# Processed by: cddbd v1.5PL3 Copyright (c) Steve Scherf et al.
# Submitted via: ExactAudioCopy v0.95a3
#
DISCID=11045103
DTITLE=The Jenkins - Blame It On Mama
DYEAR=2004
DGENRE=Country
TTITLE0=Blame It On Mama
TTITLE1=For All I Know
TTITLE2=Data
EXTD=
EXTT0=
EXTT1=
EXTT2=
PLAYORDER=
